<?xml version="1.0" encoding="UTF-8"?> <svg xmlns="http://www.w3.org/2000/svg" width="156" height="48" viewBox="0 0 156 48" fill="none"> <path d="M125.541 16.4575V30.1713H135.411L135.161 28.9177H127.019V23.8248H134.234V22.5907H127.019V17.7111H134.863L135.111 16.4575H125.541ZM113.673 16.464L107.823 22.2098L107.818 22.2055L106.761 23.2437L106.767 23.2502L106.761 23.2545L107.818 24.2949L107.823 24.2884L113.673 30.0386L115.795 30.0429L108.883 23.2502L115.795 16.4575L113.673 16.464ZM104.517 30.1713H106.014V16.4575H104.517V30.1713ZM86.9634 16.4575L80.582 30.1713H82.1186L83.7923 26.5083H83.801L87.6816 17.9658L91.5644 26.5083H91.5666L93.2425 30.1713H94.7965L88.4173 16.4575H86.9634ZM62.3999 16.4575H73.6827L73.4346 17.7111H68.7813V30.1713H67.3035V17.7111H62.6502L62.3999 16.4575ZM146.884 16.457H154.564V17.6998H148.148L147.665 22.0331H149.469C151.504 22.0331 152.984 22.3857 153.913 23.0909C154.843 23.7982 155.306 24.7842 155.306 26.053C155.306 26.8431 155.117 27.5483 154.736 28.1707C154.355 28.7932 153.783 29.2807 153.021 29.6355C152.259 29.9924 151.323 30.1709 150.214 30.1709C149.21 30.1709 148.257 30.012 147.354 29.6942C146.45 29.3787 145.726 28.9543 145.177 28.4232L145.88 27.3154C146.348 27.7811 146.962 28.162 147.726 28.4515C148.488 28.7431 149.31 28.889 150.192 28.889C151.356 28.889 152.255 28.6365 152.891 28.1316C153.526 27.6266 153.844 26.9519 153.844 26.1096C153.844 25.1781 153.485 24.4729 152.771 23.9941C152.055 23.5153 150.849 23.2759 149.151 23.2759H146.161L146.884 16.457Z" fill="black"></path> <path fill-rule="evenodd" clip-rule="evenodd" d="M41.3557 11.6043L21.9426 0.396139C21.5182 0.151157 20.9955 0.151157 20.5711 0.396139L1.15789 11.6043C0.733561 11.8493 0.472168 12.302 0.472168 12.792V35.2084C0.472168 35.6984 0.733561 36.1511 1.15789 36.3961L20.5711 47.6043C20.9955 47.8493 21.5182 47.8493 21.9426 47.6043L41.3557 36.3961C41.7801 36.1511 42.0415 35.6984 42.0415 35.2084V12.792C42.0415 12.302 41.7801 11.8493 41.3557 11.6043ZM27.8207 14.3999H14.8574V18.4353H25.7284L27.8207 14.3999ZM23.9282 29.5032H14.9188V33.5999H23.9282C27.1582 33.5999 29.7765 30.9848 29.7765 27.7601C29.7765 24.5354 27.1582 21.9203 23.9282 21.9203H14.9188V25.8953H23.9282C24.9294 25.8953 25.7411 26.7028 25.7411 27.6987C25.7411 28.6957 24.9294 29.5032 23.9282 29.5032Z" fill="black"></path> </svg> 